<?xml version="1.0" encoding="UTF-8"?>
<svg width="752pt" height="752pt" version="1.1" viewBox="0 0 752 752" xmlns="http://www.w3.org/2000/svg">
 <defs>
  <clipPath id="b">
   <path d="m199 438h161v174.79h-161z"/>
  </clipPath>
  <clipPath id="a">
   <path d="m186 139.21h352v421.79h-352z"/>
  </clipPath>
 </defs>
 <g clip-path="url(#b)">
  <path d="m251.65 529.71c-1.6328 4.3047-2.8281 8.3008-5.4219 18.148-3.375 12.848-3.6719 13.496-8.8555 18.91-6.7305 7.0469-11.828 10.344-23.629 15.23-6.0586 2.5039-8.6797 3.9688-10.602 5.8281-2.5898 2.5039-3.5859 4.9219-3.9648 9.4727-0.4375 5.5039 2.6523 9.9883 9.207 13.363 1.3672 0.69531 3.3203 1.5117 4.3711 1.7812 0.89453 0.23828 1.7461 0.33984 2.4766 0.33984 1.4727 0 2.4727-0.44922 2.4727-1.2461 0-0.23047-1.3672-1.8672-3.0273-3.6484-4.2305-4.457-5.2422-6.8086-4.1406-9.7305 0.90625-2.3008 4.8984-5.4453 9.6406-7.5781 2.2734-1.0234 15.641-6.3516 18.645-7.457 3.5469-1.2969 6.1523-1.9609 8.3164-1.9609 2.4492 0 4.3438 0.84375 6.3984 2.582l1.3984 1.1602 28.492-0.0625 28.523-0.085938-0.089844-2.1914c-0.26562-5.6719-1.7461-6.8086-9.4688-7.25-2.1875-0.11328-4.0781-0.28906-4.1406-0.375-0.26172-0.23828 0.875-2.9141 2.7656-6.6445 3.375-6.6172 8.0078-12.906 10.66-14.453 0.89453-0.51562 1.2969-0.69141 2.3672-0.69141 0.35547 0 0.78516 0.027344 1.332 0.058594 2.7422 0.14062 4.2812 0.78516 5.6836 2.3906 1.1641 1.332 1.4805 2.4453 1.9492 6.9062 0.29297 2.6992 0.60938 4.2461 1.2852 5.9453 3.2969 8.5234 13.082 17.945 18.637 17.945h0.125c1.8945-0.027344 2.7383-0.62109 3.7891-2.6523 0.93359-1.8359 1.0508-3.9023 0.32031-5.3359-0.26562-0.51562-1.7773-2.2695-3.3203-3.9023-6.9062-7.1641-9.0312-12.848-9.0312-24.152 0-11.477 2.2461-19.898 7.1719-26.832 0.69531-0.99609 3.0586-3.7305 5.2422-6.1133 6.9609-7.6055 8.332-10.547 8.332-17.859-0.027344-4.2305-0.31641-6.4648-1.543-11.012-2.0703-7.832-1.375-11.621 2.9961-16.52 2.9727-3.3477 3.2344-4.5117 2.1836-10.082-1.1641-6.0898-1.6016-8.7656-2.2148-14.094-0.78516-6.707-1.3672-8.1914-3.4375-9.0625-0.58594-0.26172-1.1836-0.38281-1.793-0.38281-0.72266 0-1.4648 0.17969-2.2227 0.52734-0.69922 0.32031-2.5391 1.9492-4.5742 4.043-3.875 4.0273-5.7383 5.3945-8.2461 6.0352-1.0781 0.26953-2.1133 0.42188-3.1758 0.42188-2.9062 0-6.1016-1.0898-11.359-3.7109-4.1641-2.0703-5.2148-2.5039-6.4141-2.5039h-0.37109c-0.98438 0-1.2031 0.15234-1.7305 0.92969-0.84766 1.2266-1.1367 3.5-0.875 6.875 0.23047 3.6953 0.98438 6.7852 3.375 14.047 2.3281 7.1133 2.9453 9.6094 3.0039 12.348 0.058594 2.7422-0.55469 4.5508-1.9492 5.9727-1.6016 1.5781-3.0039 2.0156-10.23 3.2109-11.129 1.8594-18.328 3.9922-25.172 7.4023-13.555 6.7891-23.781 18.875-30.16 35.715z"/>
 </g>
 <g clip-path="url(#a)">
  <path d="m414 413.33-6.8984-23.945c-0.39844-1.3594-0.13281-2.8242 0.69141-3.9609 0.82422-1.1406 2.125-1.8438 3.543-1.8945l43.711-1.6289 34.23-83.969h33.398c8.2656 0 15.016-6.6602 15.016-15.027 0-5.3516-2.918-10.086-7.1445-12.715l-51.25-27.438c-1.5195-0.80469-3.3203-1.2109-4.9375-1.3125l-21.793 0.097656c-2.1133-2.625-4.043-5.75-5.4453-8.7773-1.6094-3.4297-0.91016-7.5664 1.918-10.488 1.8281-1.8203 4.2344-2.625 6.6484-2.625h37.84c5.043 0 9.1836-4.1328 9.1836-9.2773 0-5.043-4.1445-9.1836-9.1836-9.1836l-38.25 0.003906c-4.6367 0-8.8711 1.1133-12.605 3.2344 3.0312-26.23 25.426-46.605 52.457-46.605 5.1484 0 9.2773-4.3398 9.2773-9.3828 0-5.1445-4.1289-9.2812-9.2773-9.2812-39.539 0-71.621 32.082-71.629 71.531 0 11.195 2.6289 21.789 7.1562 31.273l-18.246-0.097656c-2.1211 0-3.8359 1.7148-3.8359 3.9336 0 1.1133 0.50391 2.1211 1.3086 2.8281l25.016 24.91-30.164 46.402h-189.95c-15.027 0-27.535 12.406-28.238 27.336v75.973c0 1.207 1.0078 2.1133 2.1172 2.1133 0.90625 0 1.7109-0.51172 2.0156-1.3242l14.023-21.879v34.094l-18.055 28.652 0.097656 75.359c0 10.688 8.6719 19.254 19.27 19.254 10.688 0 19.363-8.5703 19.363-19.254l0.003907-71.141 21.891-29.352v33.488l16.523 28.344c4.7031-4.7812 10.012-8.7188 15.984-11.711 5.4922-2.7266 11.215-4.6875 18.648-6.3242l-16.352-28.473 17.457-26.523h77.578v113.08c0 10.59 8.5781 19.266 19.262 19.266 10.703 0 19.371-8.668 19.371-19.266l-0.003906-105.11 12.348-12.355c-6.4883-4.9336-11.887-8.0938-11.977-8.1602-1.0273-0.59375-1.7812-1.5586-2.1172-2.6914z"/>
 </g>
 <path d="m447.2 435.91-30.344 146.21c-7.8516 2.9023-9.9023 10.875-9.9023 10.875h10.789c0-11.277 17.145-16.039 17.375-16.039h0.074218l17.859-54.211 7.2109 24.414c12.75-17.312 36.703-22.453 36.703-22.453l3.2578 5.8633c-20.918 6.3125-31.27 16.387-36.391 24.891-1.2461 2.0742-2.3281 4.4102-3.2148 6.8203-0.09375 0.24609-0.1875 0.66016-0.26172 0.89453-0.058594 0.13281-0.09375 0.60156-0.13281 0.74219-1.4961 4.6523-1.4141 8.4492-1.4141 8.4492h-0.37891c-0.24219 0-0.38281 3.1602-0.38281 5.1953 0 0-33.434 2.5352-33.434 15.43h125.53s7.6445-3.6992 11.523-8.4922c9.707-11.957 6.0508-33.004 6.0508-33.004-9.1914 12.914-18.383 18.645-23.344 21l-27.176-84-50.434-120.68-3.3477 18.367-51.914 1.9336 6.9062 23.949c-0.003906-0.003906 18.098 10.48 28.789 23.848z"/>
 <path d="m247.71 194.08c-0.49609-0.085937-1.043-0.12891-1.6133-0.12891-2.8398 0-6.5703 1.0898-10.262 2.5469-2.5234-11.895-22.945-37.961-22.945-40.699 36.66-3.0781 58.977 46.559 60.477 49.09-0.015625 0.46875-0.19922 0.89844-0.46875 1.3008-2.5625 1.2695-5.3477 1.6367-6.9102 1.7344-3.1875-3.6445-11.793-12.879-18.277-13.844z"/>
 <path d="m247.26 196.95c6.5547 0.9375 17.41 13.91 17.41 13.91s0.10938 0.003907 0.3125 0.003907c1.7695 0 10.457-0.33203 14.535-6.6836 0.26953-3.3477-8.1602-10.832 8.4141-12.973 7.1523-1.6055 42.027-18.602 47.641-27.297 23.012 52.98-27.023 60.605-27.023 60.605s-0.9375 3.4766-2.8125 5.4883c-0.625 0.67188-2.0703 0.89063-3.7188 0.89063-3.1445 0-7.0234-0.80859-7.3594-0.88672 0.56641 0.21875 9.7383 3.6172 14.02 4.0078 0.32031 0.027344 0.78906 0.042969 1.3828 0.042969 7.625 0 35.945-2.1836 35.945-2.1836-6.8164 22.594-22.078 28.547-36.254 28.547-15.77 0-30.191-7.3555-30.191-7.3555l12.398-3.2617s-16.184-0.62891-21.41-2.2734c-25.336-8-28.227-27.828-28.227-27.828s-0.46484-9.2539-19.266-13.516c1.8984-1.4336 16.23-9.3281 23.039-9.3281 0.42188 0 0.80859 0.03125 1.1641 0.089844z"/>
</svg>
